<?xml version="1.0" encoding="utf-8"?>
<!-- Generator: Adobe Illustrator 16.0.0, SVG Export Plug-In . SVG Version: 6.00 Build 0)  -->
<!DOCTYPE svg PUBLIC "-//W3C//DTD SVG 1.1//EN" "http://www.w3.org/Graphics/SVG/1.1/DTD/svg11.dtd">
<svg version="1.1" id="Layer_1" xmlns="http://www.w3.org/2000/svg" xmlns:xlink="http://www.w3.org/1999/xlink" x="0px" y="0px"
	 width="298.781px" height="242.9px" viewBox="0 0 298.781 242.9" enable-background="new 0 0 298.781 242.9" xml:space="preserve">
<path id="XMLID_22_" fill="#FFFFFF" d="M93.938,242.9c112.781,0,174.469-93.469,174.469-174.469c0-2.625,0-5.25-0.188-7.97
	c11.998-8.719,22.312-19.405,30.563-31.78c-11.156,4.969-23.063,8.25-35.25,9.655C276.375,30.65,285.937,18.65,290.531,4.4
	c-11.999,7.125-25.219,12.188-38.906,14.906c-23.249-24.656-62.062-25.875-86.718-2.625c-15.938,15-22.688,37.313-17.719,58.594
	c-49.313-2.438-95.25-25.781-126.375-64.031C4.5,39.275,12.844,75.087,39.75,93.087C30,92.806,20.438,90.181,11.906,85.4
	c0,0.281,0,0.469,0,0.75c0,29.156,20.625,54.281,49.219,60.094c-9,2.438-18.469,2.813-27.655,1.031
	c8.063,24.938,31.03,42.094,57.28,42.563C69,206.9,42.188,216.181,14.625,216.181c-4.875,0-9.75-0.281-14.625-0.845
	C27.938,233.337,60.563,242.9,93.938,242.9"/>
</svg>
