<?xml version="1.0" encoding="utf-8"?>
<!-- Generator: Adobe Illustrator 16.0.0, SVG Export Plug-In . SVG Version: 6.00 Build 0)  -->
<!DOCTYPE svg PUBLIC "-//W3C//DTD SVG 1.1//EN" "http://www.w3.org/Graphics/SVG/1.1/DTD/svg11.dtd">


<svg version="1.1" xmlns="http://www.w3.org/2000/svg" xmlns:xlink="http://www.w3.org/1999/xlink" x="0px" y="0px" width="406.5px"
	 height="383.5px" viewBox="0 0 406.5 383.5" enable-background="new 0 0 406.5 383.5" xml:space="preserve">

<style>

#rings, #records {
  animation-name: fadeIn;
  animation-duration: 1.6s;
  animation-timing-function: cubic-bezier(.17,.67,.42,1.36);
  transform-origin: 50% 50%;
}

@keyframes fadeIn {

0% {
  opacity: 0.1;
  transform: scale(0.1);
  }

50% {
  opacity: 0.7
  transform: scale(0.5);
  }

100% {
  opacity: 1;
  transform: scale(1);
  }

}

#newstreet {
  animation-name: bounceIn;
  animation-duration: 1.6s;
  animation-timing-function: cubic-bezier(.17,.67,.42,1.36);
  transform-origin: 50% 50%;
}

@keyframes bounceIn {

0% {
  opacity: 0.1;
  transform: scale(0.2);
  }

50% {
  opacity: 0.7
  transform: scale(0.7);
  }

100% {
  opacity: 1;
  transform: scale(1);
  }

}

</style>

<g id="newstreet_1_">
	<g id="newstreet">
		<path fill="#EF3649" d="M84.896,230.287c-3.792,0.662-7.082,0.014-9.982-2.268c-3.945-3.104-6.295-7.347-8.119-11.873
			c-1.512-3.752-2.898-7.57-4.055-11.445c-1.488-4.98-2.817-10.014-3.767-15.14c-0.425-2.303-1.099-4.558-1.174-6.918
			c-0.011-0.338-0.168-0.748-0.575-0.664c-0.294,0.061-0.584,0.332-0.587,0.752c-0.007,0.885-0.12,1.763-0.203,2.643
			c-0.471,4.973-0.81,9.957-1.302,14.931c-0.822,8.282-1.61,16.604-3.944,24.616c-1.332,4.574-2.836,9.261-5.555,13.188
			c-2.714,3.92-6.227,7.34-11.406,7.871c-5.149,0.524-11.312-2.188-13.204-7.377c-0.224-0.613-0.189-1.199-0.436-1.842
			c1.104,0.043,1.525,0.782,2.075,1.307c1.491,1.418,2.742,3.16,4.74,3.91c1.907,0.717,3.791,0.658,5.615-0.49
			c4.087-2.57,6.047-6.605,7.513-10.924c1.67-4.92,2.495-10.037,3.085-15.191c0.864-7.547,1.815-15.086,2.591-22.643
			c0.662-6.435,1.488-12.84,2.371-19.247c0.281-2.028,0.691-4.039,0.916-6.073c0.088-0.805-0.037-1.256-1.017-1.02
			c-5.527,1.325-10.434,3.888-14.838,7.438c-3.86,3.112-7.107,6.752-9.4,11.183c-1.764,3.408-2.808,6.999-2.217,10.861
			c0.428,2.803,1.965,4.977,4.32,6.564c0.406,0.271,0.845,0.521,1.179,0.871c0.429,0.442,0.698,1.022,0.202,1.578
			c-0.443,0.493-0.97,0.571-1.55,0.1c-5.507-4.518-11.141-8.93-13.252-16.216c-1.041-3.592-0.239-6.98,1.199-10.288
			c2.736-6.293,7.649-10.445,13.473-13.709c6.514-3.651,13.446-6.279,20.593-8.358c1.39-0.405,2.904-0.367,4.204-1.13
			c0.421-0.246,0.938-0.414,1.242-0.766c1.898-2.199,4.324-2.146,6.77-1.471c1.471,0.407,2.957,0.598,4.443,0.837
			c0.712,0.116,1.459,0.333,1.747,0.938c0.317,0.668-0.392,1.136-0.843,1.543c-1.168,1.056-1.405,2.445-1.418,3.887
			c-0.06,6.999-0.246,14.019,0.367,20.983c0.571,6.52,1.289,13.04,2.758,19.459c0.938,4.1,1.807,8.201,3.428,12.094
			c0.693,1.664,1.551,3.258,2.304,4.896c0.211,0.459,0.521,0.821,0.989,0.649c0.475-0.172,0.212-0.679,0.148-1.028
			c-0.66-3.67-0.875-7.39-1.221-11.097c-0.31-3.334-0.236-6.681-0.391-10.017c-0.188-4.01,0.324-8.05,0.361-12.08
			c0.029-3.205,0.523-6.36,0.764-9.541c0.398-5.278,1.359-10.485,2.455-15.664c0.717-3.391,1.518-6.749,3.135-9.852
			c1.563-2.998,3.611-3.984,6.988-3.555c2.176,0.277,4.396,0.229,6.508,0.945c0.136,0.047,0.322-0.018,0.436,0.05
			c0.694,0.42,1.83,0.511,1.934,1.397c0.113,0.972-1.006,1.121-1.693,1.32c-2.07,0.6-2.729,2.364-3.52,4.018
			c-2.819,5.895-4.739,12.104-6.121,18.462c-1.088,5.011-1.786,10.099-2.572,15.17c-0.593,3.823-1.191,7.666-1.521,11.496
			c-0.574,6.691-1.385,13.408-0.271,20.162c0.381,2.316,0.609,4.646,1.438,6.854c0.614,1.636,1.489,3.103,3.078,4.019
			C84.38,229.551,84.548,229.883,84.896,230.287z"/>
		<path fill="#EF3649" d="M400.824,116.318c-0.588-0.193-1.12-0.019-1.575,0.498c-1.904,2.148-4.379,3.453-6.979,4.521
			c-7.155,2.935-14.672,4.669-22.16,6.458c-4.312,1.029-8.678,1.823-13.025,2.682c-0.959,0.189-2.449,0.861-2.791,0
			c-0.365-0.916,0.83-1.94,1.726-2.656c0.075-0.062,0.161-0.114,0.248-0.159c0.528-0.274,1.271-0.585,1.224-1.153
			c-0.054-0.665-0.907-0.824-1.479-1.016c-2.985-0.997-6.088-1.051-9.186-0.891c-2.744,0.139-4.757,1.36-5.559,4.178
			c-0.278,0.982-0.687,1.93-1.062,2.883c-0.568,1.443-1.234,2.755-3.084,2.893c-1.013,0.074-2.019,0.311-3.017,0.523
			c-3.674,0.785-7.381,1.406-11.063,2.148c-3.729,0.75-7.484,1.387-11.217,2.146c-3.965,0.806-7.938,1.587-11.907,2.362
			c-3.104,0.606-6.234,1.07-9.303,1.816c-2.771,0.676-5.703,0.92-8.055,2.889c-1.793,1.502-3.007,3.36-3.869,5.479
			c-0.144,0.354-0.293,0.893,0.188,1.209c0.274,0.182,0.446-0.1,0.61-0.257c2.996-2.874,6.9-3.521,10.728-4.312
			c2.763-0.57,5.55-1.018,8.328-1.508c2.84-0.5,5.668-1.193,8.529-1.42c3.281-0.26,6.479-1.005,9.745-1.355
			c3.645-0.391,7.268-1.039,10.914-1.465c2.678-0.311,5.348-0.705,7.988-1.218c1.187-0.229,1.282,0.044,1.077,1.095
			c-0.777,3.98-1.649,7.953-2.18,11.971c-0.814,6.191-1.503,12.404-1.242,18.679c0.043,1.018-0.004,2.036-0.336,3.061
			c-0.808,2.469-2.396,4.483-3.672,6.68c-2.785,4.783-6.584,8.586-11.477,11.144c-2.999,1.567-5.419,0.481-6.41-2.364
			c-1.679-4.809-0.938-9.667-0.151-14.51c0.158-0.981,0.754-0.662,1.285-0.332c1.048,0.653,2.152,1.043,3.411,1.135
			c4.488,0.334,9.238-3.207,10.75-7.7c1.271-3.78,1.63-7.67,0.932-11.568c-0.434-2.415-1.459-4.671-3.484-6.291
			c-5.717-4.568-12.104-2.529-16.441,2.416c-2.441,2.783-3.753,6.221-4.727,9.721c-1.724,6.206-2.896,12.508-2.323,19.006
			c0.101,1.125-0.125,2.188-0.688,3.111c-2.103,3.446-4.295,6.854-7.431,9.461c-1.948,1.621-3.907,3.319-6.375,4.157
			c-2.678,0.91-4.69-0.051-5.61-2.688c-0.662-1.904-1.032-3.881-1.112-5.915c-0.117-2.883,0.657-5.665,0.911-8.506
			c0.101-1.133,0.777-0.801,1.479-0.439c3.602,1.855,7.932,1.707,10.768-1.854c4.793-6.02,5.767-12.677,2.756-19.706
			c-2.258-5.274-7.602-6.449-12.379-4.75c-5.609,1.994-8.33,6.614-10.203,11.842c-1.436,4.005-2.369,8.179-2.69,12.404
			c-0.218,2.814-0.648,5.656-0.181,8.536c0.289,1.754,0.23,3.538-0.908,5.206c-1.266,1.854-2.174,3.948-3.315,5.895
			c-1.323,2.248-2.731,4.438-4.729,6.188c-2.441,2.143-4.592,1.545-5.486-1.543c-0.236-0.816-0.307-1.631-0.322-2.467
			c-0.107-4.793,1.053-9.408,2.002-14.046c0.664-3.247,1.424-6.479,2.266-9.684c0.781-2.977,1.654-5.928,3.207-8.635
			c0.685-1.189,1.875-1.889,2.582-3.024c0.435-0.693,0.789-1.472-0.473-1.541c-1.717-0.096-3.438-0.178-5.16,0.133
			c-3.645,0.66-7.203,1.74-10.896,2.136c-1.063,0.114-1.376-0.259-0.998-1.269c0.729-1.943,0.257-2.681-1.827-2.808
			c-2.51-0.153-5.017-0.123-7.438,0.613c-1.733,0.526-3.431,1.205-4.748,2.522c-1.761,1.76-1.354,3.703,0.938,4.651
			c1.547,0.64,3.228,0.701,4.838,1.046c0.927,0.197,1.188,0.492,0.953,1.352c-0.459,1.693-0.761,3.426-1.144,5.136
			c-1.014,4.521-2.315,8.958-3.776,13.339c-1.953,5.861-4.531,11.453-8.046,16.57c-1.332,1.94-2.614,3.926-4.827,5.041
			c-1.459,0.733-2.007,0.62-2.235-0.961c-0.229-1.546-0.673-3.058-0.642-4.654c0.077-3.933,0.506-7.813,1.017-11.711
			c0.237-1.834,0.454-3.685,0.721-5.519c0.427-2.943,0.889-5.885,1.438-8.808c0.442-2.343,0.966-4.672,1.461-7.003
			c1.048-4.918,2.41-9.737,3.99-14.502c0.162-0.491,0.351-0.967,0.976-0.928c2.034,0.125,4.004-0.521,6.002-0.584
			c4.823-0.149,9.551-1.106,14.313-1.682c5.06-0.609,10.12-1.252,15.174-1.934c1.795-0.241,3.533-0.694,4.802-2.205
			c3.164-3.766,5.336-8.08,7.06-12.641c0.194-0.517,0.108-1.174,0.032-1.75c-0.064-0.5-0.412-0.926-0.916-1.072
			c-0.575-0.166-0.939,0.269-1.188,0.679c-0.439,0.739-1.054,1.253-1.742,1.747c-5.295,3.796-11.527,5.23-17.631,6.938
			c-4.972,1.391-10.011,2.541-15.033,3.737c-2.521,0.601-5.068,1.079-7.611,1.573c-0.463,0.09-1.342,0.291-0.848-0.699
			c0.719-1.432,1.301-2.994,2.897-3.783c0.653-0.322,1.341-0.635,1.813-1.258c-0.713-0.693-1.539-1.072-2.517-1.383
			c-2.257-0.717-4.58-0.495-6.86-0.766c-2.748-0.326-4.914,0.539-6.175,3.344c-0.847,1.882-1.487,3.809-2.129,5.75
			c-0.235,0.713-0.302,1.615-1.263,1.799c-2.153,0.412-4.315,0.791-6.479,1.164c-0.615,0.105-0.982-0.094-1.148-0.797
			c-0.775-3.33-2.797-5.657-5.891-7.077c-4.945-2.271-9.925-1.683-14.875-0.081c-4.196,1.356-7.963,3.521-11.412,6.289
			c-6.264,5.025-10.727,11.025-10.891,19.444c-0.053,2.738,0.439,5.328,1.763,7.791c2.543,4.73,6.627,7.803,11.035,10.54
			c4.123,2.564,8.317,5.013,12.413,7.617c2.539,1.615,4.183,3.752,3.709,7.093c-0.332,2.353-1.476,4.325-2.334,6.448
			c-2.553,6.299-5.501,12.377-9.757,17.729c-1.341,1.688-2.564,3.513-4.493,4.646c-1.818,1.072-3.178,0.438-3.655-1.565
			c-0.414-1.735-0.033-3.412,0.036-5.123c0.186-4.604,1.398-8.959,3.035-13.205c0.863-2.235,2.045-4.342,3.624-6.188
			c1.937-2.27,4.434-3.088,7.34-2.918c0.445,0.023,0.998,0.195,1.188-0.522c0.157-0.597,0-1.078-0.409-1.453
			c-0.316-0.293-0.714-0.521-1.109-0.696c-2.406-1.09-4.73-2.396-7.269-3.148c-2.504-0.742-5.063-1.111-7.135,1.082
			c-1.457,1.541-2.695,3.275-3.641,5.17c-3.37,6.762-4.697,13.898-3.457,21.391c0.486,2.943,1.406,5.801,3.168,8.303
			c1.6,2.271,4.107,3.25,6.783,2.711c2.541-0.516,4.781-1.666,6.938-3.03c6.254-3.964,11.38-9.104,15.27-15.354
			c3.143-5.05,5.434-10.42,5.373-16.644c-0.055-5.619-2.517-9.615-7.013-12.608c-3.106-2.071-6.471-3.729-9.48-5.958
			c-4.063-3.008-8.103-6.035-11.174-10.129c-4.082-5.439-3.416-12.482,1.361-16.793c5.035-4.543,11.082-6.657,17.902-6.486
			c2.505,0.063,4.168,2.334,4.084,4.973c-0.012,0.377-0.195,0.607-0.631,0.666c-1.26,0.17-2.51,0.514-3.771,0.561
			c-2.223,0.08-4.299,0.548-5.972,2.052c-1.852,1.664-3.918,3.168-4.914,5.588c-0.219,0.529-0.624,1.213-0.061,1.622
			c0.457,0.328,1-0.228,1.394-0.538c1.68-1.326,3.5-2.313,5.63-2.697c1.875-0.338,3.741-0.723,5.61-1.094
			c0.436-0.086,0.906-0.681,1.289-0.095c0.277,0.423-0.006,0.915-0.244,1.372c-1.609,3.075-3.691,5.807-6.096,8.283
			c-2.271,2.34-3.102,2.356-5.888,0.49c-0.432-0.289-0.984-0.729-1.466-0.312c-0.368,0.318-0.196,0.92-0.042,1.396
			c0.594,1.848,1.744,3.235,3.332,4.356c2.559,1.81,4.851,4.01,7.834,5.178c0.479,0.188,0.885,0.363,1.368,0
			c3.248-2.438,6.174-5.188,8.313-8.674c2.466-4.021,4.111-8.319,4.216-13.106c0.013-0.498-0.007-1.122,0.676-1.094
			c1.312,0.056,2.513-0.414,3.767-0.623c1.061-0.176,1.391,0.387,1.104,1.258c-0.289,0.89-0.39,1.809-0.617,2.693
			c-1.672,6.515-2.393,13.18-3.141,19.832c-0.684,6.067-1.055,12.167-0.914,18.285c0.08,3.5,0.48,6.945,1.793,10.232
			c1.229,3.086,3.938,5.619,8.243,4.598c3.366-0.801,5.409-3.113,7.188-5.695c4.06-5.889,6.672-12.52,9.433-19.063
			c2.584-6.123,4.88-12.367,6.692-18.755c0.647-2.278,1.418-3.533,3.938-3.058c0.387,0.072,0.838-0.199,1.26-0.309
			c0.275-0.072,0.563-0.24,0.832,0.01c0.344,0.314,0.104,0.629-0.008,0.943c-0.66,1.824-1.13,3.691-1.564,5.59
			c-1.139,4.951-1.705,9.947-1.728,15.009c-0.021,4.217-0.399,8.478,1.2,12.547c1.156,2.941,3.018,4.984,6.344,5.414
			c2.877,0.371,5.148-0.813,7.172-2.631c3.23-2.91,5.283-6.684,7.412-10.391c0.188-0.33,0.262-0.826,0.734-0.816
			c0.514,0.008,0.468,0.512,0.606,0.867c0.306,0.779,0.638,1.551,1.021,2.291c1.279,2.459,2.882,4.613,5.795,5.234
			c3.31,0.705,6.424-0.023,9.39-1.514c5.563-2.797,10.129-6.719,13.399-12.066c0.146-0.236,0.189-0.583,0.573-0.595
			c0.485-0.018,0.454,0.385,0.596,0.689c0.531,1.16,1.04,2.342,1.682,3.441c1.309,2.256,3.106,3.793,5.824,4.252
			c2.731,0.461,5.265-0.018,7.729-1.086c6.486-2.809,11.462-7.314,14.972-13.455c0.235-0.418,0.059-1.309,0.846-1.174
			c0.814,0.142,0.49,0.977,0.537,1.496c0.383,4.256,1.065,8.456,2.496,12.495c0.428,1.205,0.127,1.731-1.06,2.186
			c-5.524,2.117-11.03,4.287-16.519,6.504c-5.977,2.414-12.009,4.684-18.099,6.777c-6.136,2.106-12.243,4.313-18.499,6.051
			c-3.279,0.912-6.57,1.805-9.89,2.564c-2.903,0.666-5.856,1.084-8.819,1.436c-4.351,0.518-8.629,0.801-12.336-2.217
			c-0.218-0.178-0.498-0.312-0.771-0.377c-1.679-0.424-2.216,0.109-1.752,1.768c0.476,1.703,1.762,2.918,2.713,4.33
			c2.136,3.172,4.215,6.389,7.049,9.025c2.146,1.996,4.507,3.276,7.563,2.701c2.301-0.435,4.609-0.777,6.865-1.451
			c6.617-1.98,12.674-5.248,18.856-8.203c8.584-4.104,16.991-8.563,25.374-13.064c7.037-3.777,14.098-7.518,21.039-11.469
			c0.572-0.326,0.901-0.215,1.354,0.293c1.651,1.859,2.964,4.023,5.257,5.309c3.073,1.719,6.841,1.256,9.117-1.438
			c2.973-3.515,4.697-7.483,4.386-12.22c-0.197-2.975-2.546-4.602-5.433-3.766c-2.413,0.701-4.664,1.766-6.932,2.799
			c-2.272,1.035-2.313,1.037-2.574-1.305c-0.016-0.146-0.073-0.287-0.104-0.43c-1.082-4.923-0.909-9.932-0.519-14.871
			c0.457-5.748,1.074-11.496,2.136-17.193c0.657-3.542,1.219-7.116,1.961-10.635c0.813-3.846,2.037-7.611,3.465-11.293
			c0.208-0.535,0.514-0.844,1.152-0.945c2.504-0.396,4.993-0.889,7.493-1.322c4.188-0.73,8.361-1.541,12.567-2.134
			c4.304-0.606,8.572-1.399,12.856-2.104c1.833-0.301,3.659-0.76,5.502-0.84c1.873-0.08,3.346-0.793,4.555-2.088
			c2.729-2.923,4.801-6.293,6.516-9.898c0.508-1.073,0.619-2.17,0.578-3.301C401.198,117.163,401.449,116.525,400.824,116.318z
			 M312.146,172.428c1.454-3.766,2.209-7.8,4.342-11.304c0.853-1.399,1.771-2.726,3.427-3.282c0.885-0.298,1.6-0.16,1.31,0.955
			c-1.099,4.204-2.173,8.421-4.56,12.148c-0.91,1.42-2.141,2.25-3.839,2.387C312.115,173.424,311.945,172.945,312.146,172.428z
			 M281.34,178.369c1.512-4.329,2.408-8.908,5.18-12.729c0.662-0.912,1.508-1.584,2.541-1.932c0.705-0.236,1.658-0.303,1.334,0.956
			c-1.111,4.32-2.271,8.628-4.752,12.436c-0.883,1.354-2.186,1.898-3.969,2.178C281.295,179.288,281.191,178.79,281.34,178.369z
			 M345.177,201.395c2.094-1.262,4.205-2.502,6.603-3.086c1.494-0.363,2.352,0.305,2.333,2.064c-0.325,1.83-1.002,3.953-2.625,5.631
			c-1.08,1.117-2.479,1.162-3.705,0.256c-1.385-1.025-2.067-2.586-3.007-3.951C344.456,201.846,344.827,201.605,345.177,201.395z"/>
		<path fill="#EF3649" d="M260.594,107.37c-0.082-0.826-0.377-1.498-1.156-1.699c-0.688-0.179-1.188,0.337-1.521,0.929
			c-0.237,0.426-0.442,0.873-0.683,1.301c-0.821,1.49-1.455,3.058-2.84,4.236c-4.441,3.783-9.731,5.903-15.158,7.624
			c-5.948,1.888-12.008,3.45-18.053,5.013c-4.387,1.133-8.826,2.053-13.248,3.035c-3.563,0.791-7.125,1.607-10.702,2.285
			c-3.353,0.635-6.67,1.432-10.039,1.993c-3.459,0.577-6.873,1.431-10.303,2.171c-5.811,1.253-11.621,2.497-17.421,3.792
			c-0.688,0.153-1.212,0.201-1.745-0.327c-1.13-1.121-2.533-1.344-4.079-1.291c-1.223,0.043-2.315,0.483-3.399,0.889
			c-2.64,0.992-5.116,2.248-6.568,4.892c-0.366,0.666-0.346,1.155,0.059,1.754c0.799,1.183,2.03,1.421,3.299,1.603
			c3.09,0.445,2.929,0.518,3.523,2.842c0.82,3.197,1.255,6.457,1.221,9.732c-0.048,4.516-0.307,9.019-0.879,13.524
			c-0.427,3.352-0.908,6.688-1.5,10.008c-0.795,4.467-1.994,8.844-3.218,13.208c-0.62,2.215-1.272,4.434-2.892,6.193
			c-1.002,1.094-1.467,1.053-1.809-0.408c-0.535-2.287-0.945-4.615-0.705-6.986c0.409-4.035,0.672-8.083,1.659-12.046
			c0.56-2.244,1.001-4.5,2.833-6.132c0.581-0.519,0.549-0.961-0.191-1.146c-3.1-0.771-6.233-1.383-9.416-0.608
			c-1.096,0.267-2.07,0.835-2.096,2.278c-0.039,2.354-0.33,4.711-0.65,7.023c-0.719,5.174-1.327,10.395-3.026,15.375
			c-0.657,1.926-1.239,3.954-2.786,5.448c-0.683,0.66-1.453,1.306-2.451,1.011c-1.047-0.314-1.26-1.38-1.365-2.271
			c-0.451-3.84-0.043-7.68,0.709-11.423c0.608-3.038,1.319-6.073,2.125-9.083c1.266-4.734,2.33-9.518,5.553-13.42
			c0.416-0.504,0.277-0.746-0.208-0.98c-2.571-1.239-5.246-2.213-8.121-2.217c-1.742-0.002-3.356,0.246-4.076,3.008
			c-0.603,2.313-0.991,4.667-1.458,7.006c-1.076,5.383-2.003,10.768-2.279,16.256c-0.154,3.064-0.791,5.888-2.608,8.548
			c-2.96,4.33-6.132,8.375-11.162,10.305c-3.052,1.172-5.367,0.383-6.37-2.871c-1.459-4.729-0.868-9.486-0.134-14.254
			c0.192-1.248,0.521-1.292,1.559-0.75c4.375,2.273,8.679,1.381,11.566-2.644c3.961-5.525,4.575-11.661,2.356-18
			c-2.301-6.581-8.88-8.27-14.795-5.088c-3.613,1.942-5.853,5.088-7.289,8.756c-2.697,6.896-4.142,14.063-3.926,22.061
			c-0.104,2.993-0.021,6.506,1.15,9.922c0.871,2.543,1.976,4.922,4.019,6.729c3.136,2.771,6.791,2.313,10.291,1.183
			c6.425-2.076,11.099-6.486,14.841-11.974c0.203-0.299,0.246-0.779,0.812-0.676c0.506,0.092,0.489,0.504,0.651,0.855
			c0.722,1.574,1.588,3.068,2.95,4.186c2.816,2.305,5.474,2.914,8.454,0.443c2.827-2.344,4.451-5.551,5.701-8.947
			c0.141-0.383,0.05-1.002,0.688-0.939c0.522,0.052,0.656,0.603,0.739,1.004c0.345,1.681,1.177,3.119,2.156,4.474
			c1.245,1.72,3.088,2.571,5.097,2.375c1.885-0.187,3.627-1.103,5.096-2.418c2.736-2.457,4.932-5.315,6.634-8.576
			c1.979-3.789,3.336-7.82,4.663-11.859c0.713-2.172,1.357-4.383,1.818-6.621c0.824-4.016,1.5-8.055,1.976-12.138
			c0.784-6.744,0.677-13.412-0.873-20.031c-0.412-1.76-0.447-1.742,1.444-1.916c3.764-0.347,7.511-0.859,11.261-1.297
			c6.821-0.796,13.655-1.484,20.481-2.226c5.218-0.565,10.448-0.992,15.67-1.515c3.605-0.361,7.209-0.764,10.813-1.183
			c3.159-0.368,6.313-0.784,9.471-1.179c5.481-0.682,10.884-1.741,16.213-3.217c4.266-1.18,7.26-3.603,8.943-7.768
			c1.264-3.128,2.483-6.283,3.346-9.521C259.887,112.521,260.855,110.041,260.594,107.37z M96.298,188.243
			c1.281-4.454,2.311-9.009,5.068-12.888c0.748-1.051,1.793-1.674,2.918-2.182c0.387-0.175,0.92-0.258,0.908,0.41
			c-0.488,1.967-0.888,3.879-1.443,5.745c-0.752,2.522-1.454,5.065-2.979,7.299c-0.893,1.308-2.064,2.042-3.552,2.392
			C96.551,189.176,96.068,189.043,96.298,188.243z"/>
	</g>
</g>
<g id="records">
	<g id="rings_1_">
		<g>
			<path fill="#F8F8F7" d="M211.152,261.217c0.004-0.834-0.021-1.668,0.014-2.5c0.02-0.477-0.318-1.215,0.557-1.24
				c0.719-0.021,1.607-0.014,1.723,0.971c0.212,1.796,0.438,3.599,0.06,5.412c-0.198,0.951-0.847,1.109-1.629,1.123
				c-0.985,0.015-0.703-0.727-0.717-1.266C211.139,262.883,211.152,262.049,211.152,261.217z"/>
			<path fill="#F8F7F7" d="M271.498,261.143c0-0.832-0.002-1.666,0-2.498c0-0.51-0.232-1.192,0.637-1.176
				c0.676,0.014,1.512,0.035,1.631,0.916c0.244,1.846,0.369,3.707,0.049,5.561c-0.162,0.937-0.928,1.074-1.69,1.033
				c-0.972-0.049-0.604-0.811-0.617-1.338C271.484,262.809,271.498,261.975,271.498,261.143z"/>
			<path fill="#F7F6F6" d="M287.273,267.137c0-2.76-0.004-5.52,0.002-8.279c0.002-0.6-0.293-1.399,0.762-1.401
				c0.914-0.002,1.754,0.049,1.852,1.342c0.256,3.349,0.418,6.69,0.328,10.043c-0.063,2.269-0.271,4.524-0.336,6.791
				c-0.041,1.354-0.943,1.274-1.85,1.287c-1.079,0.021-0.771-0.741-0.768-1.353c0.01-2.811,0.004-5.619,0.004-8.43
				C287.27,267.137,287.271,267.137,287.273,267.137z"/>
			<path fill="#F8F8F7" d="M258.74,267.539c0,2.418,0.014,4.834-0.01,7.252c-0.004,0.533-0.06,1.09-0.22,1.596
				c-0.165,0.521-0.512,0.969-1.168,0.963c-0.588-0.006-0.854-0.434-1.094-0.869c-0.315-0.578-0.383-1.217-0.381-1.862
				c0.016-4.933,0.021-9.865,0.062-14.796c0.004-0.633,0.131-1.276,0.301-1.891c0.131-0.471,0.399-0.928,1.008-0.93
				c0.576-0.004,0.877,0.381,1.104,0.844c0.311,0.631,0.447,1.295,0.445,2c-0.014,2.564-0.006,5.129-0.006,7.693
				C258.768,267.539,258.754,267.539,258.74,267.539z"/>
		</g>
	</g>
	<g id="records_1_">
		<path fill="#EDEDED" d="M319.144,276.035c-0.335-4.58-0.417-9.17-0.139-13.746c0.217-3.551,0.293-7.08-0.121-10.607
			c-0.272-2.346-1.118-4.361-3.592-5.242c-1.716-0.61-3.465-0.998-5.292-1.069c-5.42-0.216-10.832,0.166-16.248,0.185
			c-17.611,0.059-35.225-0.162-52.832,0.161c-1.854,0.033-3.387-0.435-4.662-1.747c-2.199-2.267-4.697-4.183-7.148-6.148
			c-3.24-2.605-6.51-5.176-9.979-7.93c0,4.799,0.018,9.287-0.008,13.774c-0.014,1.916-0.119,1.942-1.979,2.017
			c-4.486,0.174-8.949-0.479-13.438-0.313c-4.384,0.161-7.266,2.668-7.313,6.967c-0.114,9.815-0.149,19.638,0.021,29.451
			c0.063,3.534,0.784,6.229,6.126,7.213c2.055,0.377,4.121,0.22,6.188,0.22c32.607-0.005,65.219-0.013,97.826-0.019
			c2.212,0,4.42,0,6.626-0.283c2.619-0.338,4.986-2.256,5.396-4.674C319.04,281.529,319.345,278.797,319.144,276.035z
			 M218.447,281.355c-1.254-0.201-2.842,0.506-3.704-0.271c-0.774-0.694-0.798-2.233-1.146-3.401
			c-0.687-2.304-1.365-4.605-2.05-6.908c-0.144,0.006-0.28,0.012-0.424,0.018c0,1.645-0.002,3.285,0.002,4.928
			c0.002,0.689,0.031,1.383,0.021,2.068c-0.021,1.125,0.34,2.547-0.209,3.295c-0.617,0.842-2.119,0.039-3.215,0.254
			c-1.099,0.213-1.313-0.287-1.306-1.293c0.043-5.564,0.021-11.137,0.021-16.705c0-3.006,0.047-6.014-0.021-9.018
			c-0.023-1.059,0.311-1.361,1.334-1.289c2.301,0.166,4.629-0.244,6.916,0.316c1.957,0.477,3.146,1.678,3.596,3.655
			c0.633,2.802,0.604,5.563-0.262,8.313c-0.354,1.113-0.857,2.144-1.842,2.767c-0.73,0.466-0.68,0.906-0.438,1.595
			c1.229,3.473,2.403,6.965,3.629,10.438C219.678,281.047,219.629,281.547,218.447,281.355z M233.395,256.613
			c0.146,0.662-0.207,0.992-0.916,0.979c-1.43-0.023-2.861,0.045-4.287-0.031c-0.868-0.051-1.289,0.146-1.272,1.094
			c0.022,1.824-0.002,3.646-0.049,5.474c-0.021,0.783,0.415,0.871,1.032,0.86c1.232-0.022,2.47,0.011,3.699-0.02
			c0.681-0.021,1.033,0.223,0.982,0.934c-0.004,0.049-0.004,0.098,0,0.146c0.252,3.377,0.252,3.377-3.084,3.382
			c-2.596,0-2.598,0-2.604,2.616c-0.004,1.281,0.049,2.565-0.022,3.845c-0.045,0.799,0.211,1.057,0.993,1.022
			c1.479-0.06,2.961-0.007,4.438-0.082c0.869-0.045,1.088,0.313,1.115,1.116c0.123,3.378,0.145,3.371-3.17,3.375
			c-2.318,0-4.639,0.005-6.955,0.035c-0.666,0.011-1.184-0.004-1.107-0.907c0.354-4.435,0.021-8.873,0.066-13.31
			c0-4.438,0.016-8.877-0.02-13.313c-0.004-0.605,0.16-0.779,0.729-0.777c3.207,0.014,6.412,0.004,9.619,0.002
			c0.099,0,0.231-0.035,0.289,0.014C233.996,254.1,233.135,255.438,233.395,256.613z M248.158,275.584
			c-0.008,2.359-0.662,4.516-2.863,5.811c-3.715,2.187-8.285,0.127-9.088-4.086c-0.201-1.063-0.268-2.147-0.447-3.676
			c0.563-4.574-0.064-9.592,0.02-14.611c0.021-1.069,0.269-2.153,0.537-3.196c0.441-1.707,1.787-2.483,3.341-3.019
			c4.579-1.57,8.016,0.615,8.456,5.404c0.021,0.246,0.025,0.492,0.025,0.738c-0.004,4.813,0.566,3.543-3.938,3.74
			c-0.709,0.027-0.966-0.316-0.914-0.998c0.067-0.938,0.118-1.869,0.139-2.807c0.019-0.918-0.288-1.769-1.282-1.867
			c-1.019-0.105-1.25,0.795-1.369,1.592c-0.146,0.973-0.369,1.967-0.295,2.932c0.301,3.988,0.141,7.973,0.043,11.959
			c-0.021,0.779,0.104,1.57,0.229,2.346c0.133,0.813,0.414,1.625,1.449,1.512c1.002-0.108,1.159-0.953,1.188-1.771
			c0.03-0.937,0.034-1.875-0.023-2.81c-0.047-0.729,0.119-1.098,0.951-1.051C248.695,271.975,248.174,270.586,248.158,275.584z
			 M263.412,265.947c-0.018,0.441-0.004,0.887-0.004,1.33c-0.096,3.147,0.133,6.305-0.137,9.451
			c-0.326,3.846-2.947,5.864-6.78,5.242c-3.679-0.601-5.046-2.06-5.138-5.796c-0.131-5.269-0.148-10.536-0.209-15.808
			c-0.006-0.54,0.028-1.084,0.073-1.625c0.447-5.229,4.714-7.661,9.539-5.465c1.91,0.869,2.584,2.457,2.695,4.394
			C263.613,260.432,263.502,263.189,263.412,265.947z M278.702,281.34c-0.097-0.02-0.196-0.004-0.295-0.016
			c-1.157-0.152-2.634,0.549-3.405-0.271c-0.723-0.762-0.752-2.176-1.08-3.303c-0.681-2.324-1.355-4.648-2.033-6.975
			c-0.563,1.676-0.408,3.322-0.422,4.965c-0.01,1.525-0.021,3.057,0.043,4.582c0.035,0.871-0.295,1.164-1.125,1.049
			c-0.438-0.059-0.885-0.049-1.328-0.051c-2.258-0.021-2.26-0.018-2.26-2.355c-0.002-8.186,0.021-16.369-0.027-24.555
			c-0.01-1.102,0.234-1.475,1.371-1.383c2.301,0.184,4.633-0.252,6.918,0.332c1.826,0.467,3.033,1.57,3.475,3.43
			c0.634,2.684,0.693,5.357-0.063,8.039c-0.386,1.363-0.9,2.625-2.171,3.385c-0.659,0.396-0.465,0.836-0.274,1.381
			c1.223,3.479,2.401,6.971,3.632,10.441C279.998,281.016,279.99,281.611,278.702,281.34z M294.838,267.043
			c-0.082,3.045,0.293,6.242-0.148,9.445c-0.481,3.502-2.178,5.078-5.696,5c-1.918-0.041-3.82-0.424-5.752-0.225
			c-0.601,0.063-0.75-0.285-0.726-0.824c0.42-8.771-0.152-17.543,0.232-26.313c0.02-0.437-0.234-1.104,0.59-1.063
			c2.65,0.127,5.326-0.307,7.959,0.299c1.932,0.441,3.021,1.664,3.355,3.638C295.215,260.289,294.793,263.592,294.838,267.043z
			 M309.74,278.275c-0.729,2.66-3.015,3.924-6.566,3.77c-2.776-0.119-4.506-1.598-5.078-4.254c-0.379-1.758-0.234-3.533-0.297-5.303
			c-0.021-0.576,0.242-0.775,0.801-0.764c1.033,0.02,2.07,0.018,3.104-0.025c0.797-0.031,0.889,0.457,0.862,1.051
			c-0.035,0.838-0.147,1.676-0.121,2.51c0.03,0.955,0.175,2.027,1.396,2.076c1.127,0.045,1.369-0.939,1.521-1.846
			c0.468-2.816-0.163-5.186-2.787-6.723c-4.588-2.688-5.561-6.845-4.733-11.713c0.524-3.111,2.86-4.716,6.681-4.621
			c3.139,0.073,4.958,1.688,5.348,4.778c0.104,0.83,0.104,1.672,0.153,2.509c-0.021,2.948-0.021,2.948-2.936,2.973
			c-1.905,0.014-1.896,0.014-1.816-1.906c0.029-0.787,0.058-1.58-0.007-2.363c-0.062-0.75-0.483-1.313-1.269-1.42
			c-0.847-0.111-1.326,0.473-1.466,1.174c-0.371,1.883-0.438,3.771,1.093,5.242c0.92,0.887,1.901,1.727,2.941,2.459
			c2.13,1.512,3.414,3.42,3.661,6.104C310.424,274.129,310.301,276.223,309.74,278.275z"/>
	</g>
</g>
<g id="rings">
	<path fill="#ECECEC" d="M192.441,52.333c6.888-0.098,12.629,0.182,18.332,0.969c11.737,1.62,23.076,4.703,33.959,9.427
		c10.61,4.604,20.461,10.499,29.55,17.62c7.224,5.659,13.78,12.021,19.683,19.09c7.521,9.016,13.604,18.92,18.839,29.385
		c1.182,2.358,1.173,2.301-1.528,2.93c-2.475,0.576-5.021,0.669-7.481,1.33c-0.918,0.248-1.229-0.686-1.479-1.323
		c-1.662-4.222-4.091-8.022-6.513-11.813c-6.35-9.937-13.731-19.002-22.608-26.824c-12.402-10.932-26.473-18.945-42.105-24.256
		c-6.414-2.18-12.996-3.697-19.66-4.854c-8.326-1.444-16.738-1.623-25.136-1.179c-5.705,0.303-11.379,1.144-17.022,2.193
		c-17.89,3.33-33.982,10.619-48.638,21.32c-6.901,5.042-13.252,10.684-18.975,17c-7.613,8.404-13.906,17.732-18.738,28.02
		c-0.313,0.666-0.713,1.297-0.961,1.983c-0.728,2.001-1.631,3.536-3.987,4.29c-2.964,0.949-4.695,3.583-6.228,6.209
		c-0.195,0.335-0.377,0.678-0.597,0.997c-0.463,0.675-0.864,1.159-1.873,0.584c-0.823-0.469-2.401,0.011-2.694-0.896
		c-0.248-0.764,0.594-1.869,0.918-2.836c4.244-12.637,10.2-24.422,18.006-35.215c5.838-8.074,12.613-15.314,20.181-21.847
		c10.03-8.659,20.991-15.81,33.063-21.253c8.277-3.734,16.918-6.426,25.793-8.252c6.26-1.288,12.596-2.174,19.008-2.527
		C186.885,52.422,190.229,52.491,192.441,52.333z"/>
	<path fill="#ECECEC" d="M70.594,236.115c4.014,2.313,8.28,3.299,12.727,3.613c0.91,0.063,0.998,0.881,1.293,1.428
		c2.85,5.264,5.992,10.344,9.521,15.18c6.405,8.781,13.746,16.652,22.302,23.416c10.935,8.645,22.987,15.158,36.088,19.852
		c6.521,2.336,13.188,4.058,19.994,5.213c5.426,0.925,10.924,1.226,16.426,1.422c5.13,0.183,10.242-0.104,15.342-0.512
		c5.297-0.426,10.541-1.274,15.729-2.481c6.174-1.437,12.207-3.271,17.981-5.901c2.446-1.113,5.065-1.23,7.661-1.011
		c5.175,0.438,10.351,0.147,15.521,0.254c0.488,0.011,0.979,0,1.547,0C209.057,333.531,108.764,323.387,70.594,236.115z"/>
	<path fill="#F3F3F3" d="M88.605,136.044c2.508-5.387,5.264-10.502,8.504-15.348c3.092-4.625,6.504-9.002,10.268-13.098
		c7.457-8.117,15.925-15.025,25.283-20.834c6.379-3.96,13.07-7.281,20.131-9.9c5.68-2.104,11.473-3.769,17.396-4.883
		c10.172-1.912,20.438-2.611,30.797-1.896c13.621,0.941,26.649,4.168,39.059,9.845c9.096,4.163,17.469,9.504,25.227,15.824
		c6.392,5.206,12.113,11.071,17.379,17.399c0.896,1.072,0.728,1.519-1.006,2.828c-0.951,0.719-1.178-0.207-1.5-0.691
		c-1.949-2.93-4.441-5.396-6.865-7.903c-4.204-4.353-8.688-8.411-13.549-12.035c-6.703-4.995-13.867-9.198-21.477-12.655
		c-8.283-3.764-16.928-6.406-25.855-8.031c-3.494-0.635-7.045-1.053-10.612-1.336c-5.565-0.44-11.128-0.471-16.673-0.149
		c-6.979,0.403-13.879,1.538-20.668,3.261c-13.234,3.359-25.33,9.151-36.461,17.024c-6.646,4.7-12.795,9.985-18.248,16.011
		c-7.203,7.963-13.277,16.736-17.857,26.488c-0.252,0.533-0.418,0.777-1.068,0.533C90.129,136.247,89.379,136.196,88.605,136.044z"
		/>
	<path fill="#F3F3F3" d="M96.624,137.747c2.812-5.555,5.844-10.805,9.418-15.737c4.554-6.278,9.75-11.95,15.519-17.134
		c6.36-5.715,13.311-10.563,20.817-14.62c6.07-3.281,12.431-5.888,19.019-7.94c6.584-2.053,13.324-3.424,20.17-4.094
		c6.516-0.639,13.058-0.602,19.609-0.131c9.416,0.675,18.486,2.785,27.334,5.962c2.977,1.067,5.895,2.292,8.732,3.688
		c0.406,0.201,1.082,0.487,0.463,0.992c-0.6,0.487-0.068,2.076-1.646,1.588c-3.418-1.059-6.496-2.92-9.906-4.021
		c-6.176-1.991-12.444-3.454-18.873-4.37c-5.354-0.764-10.74-1.15-16.121-1.044c-5.619,0.11-11.217,0.651-16.795,1.612
		c-15.707,2.703-29.789,9.078-42.699,18.242c-13.732,9.748-24.277,22.24-31.809,37.285c-0.334,0.668-0.523,0.924-1.258,0.434
		C98.051,138.097,97.336,137.993,96.624,137.747z"/>
	<path fill="#F2F2F2" d="M92.602,234.816c3.711,7.455,8.153,14.08,13.242,20.246c4.258,5.16,8.969,9.896,14.072,14.258
		c6.516,5.563,13.488,10.422,21.059,14.416c8.271,4.363,16.984,7.531,26.105,9.6c6.156,1.396,12.371,2.373,18.684,2.674
		c1.743,0.084,0.76,1.377,0.967,2.105c0.234,0.816-0.308,0.908-1.043,0.867c-7.972-0.449-15.809-1.668-23.539-3.703
		c-8.483-2.232-16.561-5.457-24.27-9.609c-6.881-3.707-13.26-8.148-19.266-13.16c-9.299-7.758-16.873-16.98-23.393-27.115
		c-1.431-2.223-2.604-4.604-3.97-6.869c-0.549-0.907-0.535-1.561,0.343-2.194C92.033,236.01,92.334,235.549,92.602,234.816z"/>
	<path fill="#F3F3F3" d="M104.426,146.665c-0.341-1.403-0.691-2.83-1.031-4.258c-0.111-0.472,0.16-0.828,0.356-1.229
		c3.694-7.465,8.237-14.387,13.631-20.714c4.574-5.366,9.675-10.218,15.291-14.509c6.497-4.965,13.456-9.139,20.992-12.325
		c6.974-2.949,14.199-5.028,21.662-6.325c7.438-1.292,14.929-1.593,22.455-1.498c1.062,0.014,1.337,0.482,1.151,1.35
		c-0.166,0.775,0.324,2.039-1.295,1.887c-5.219-0.486-10.43-0.109-15.615,0.386c-5.627,0.537-11.164,1.699-16.586,3.304
		c-12.307,3.641-23.526,9.418-33.435,17.582c-11.896,9.801-21.034,21.735-27.11,35.949
		C104.816,146.445,104.795,146.648,104.426,146.665z"/>
	<path fill="#F2F2F2" d="M115.617,158.229c1.5-4.877,3.471-9.377,5.974-13.627c7.333-12.454,16.878-22.799,29.388-30.185
		c6.916-4.084,14.336-6.986,22.185-8.846c3.849-0.912,7.729-1.553,11.623-2.182c0.569-0.092,1.59-0.542,1.463,0.689
		c-0.09,0.881,0.828,2.334-1.103,2.461c-5.276,0.345-10.42,1.471-15.451,3.016c-8.813,2.705-16.86,6.908-24.288,12.413
		c-9.664,7.161-17.08,16.146-22.57,26.778c-1.16,2.246-2.157,4.582-3.116,6.922c-0.388,0.949-0.818,1.636-1.91,1.676
		C117.007,157.376,116.402,157.904,115.617,158.229z"/>
	<path fill="#F1F1F1" d="M109.643,157.78c-0.895-0.27-1.643-0.469-2.369-0.726c-0.39-0.138-0.225-0.396-0.112-0.707
		c2.842-7.946,6.521-15.464,11.215-22.498c7.763-11.632,17.808-20.767,30.007-27.521c5.305-2.937,10.856-5.373,16.659-7.199
		c0.595-0.188,1.229-0.508,1.269,0.427c0.03,0.759,1.213,1.72-0.375,2.312c-2.738,1.021-5.478,2.057-8.146,3.244
		c-8.698,3.867-16.672,8.854-23.778,15.246c-11.117,9.998-18.652,22.279-23.604,36.272
		C110.255,157.056,110.264,157.786,109.643,157.78z"/>
	<path fill="#F1F1F1" d="M152.695,283.416c-13.289-5.391-25.119-12.861-35.275-22.941c-10.168-10.094-17.73-21.918-23.443-35.111
		c0.906,0.021,1.799,0.386,2.741-0.014c0.583-0.246,0.642,0.566,0.823,0.959c2.24,4.857,4.758,9.562,7.646,14.064
		c5.063,7.9,11.022,15.014,18.037,21.283c8.715,7.789,18.504,13.836,29.162,18.523c1.147,0.504,1.61,0.883,0.793,2.01
		C152.961,282.496,152.889,282.906,152.695,283.416z"/>
	<path fill="#F1F1F1" d="M112.514,219.049c0.596,0.021,0.657,0.555,0.821,0.916c2.024,4.477,4.408,8.75,7.095,12.861
		c4.332,6.625,9.555,12.465,15.541,17.623c8.305,7.15,17.754,12.32,28.045,15.988c0.953,0.34,0.881,0.69,0.721,1.565
		c-0.316,1.709-1.018,1.61-2.396,1.11c-9.041-3.274-17.504-7.647-25.072-13.565c-9.266-7.245-16.811-16.053-22.6-26.313
		c-1.324-2.352-2.453-4.813-3.809-7.143c-0.643-1.102-0.518-1.725,0.586-2.27C111.834,219.633,112.16,219.313,112.514,219.049z"/>
	<path fill="#F1F1F1" d="M140.521,268.473c-17.236-10.875-30.197-25.422-38.252-44.24c0.188-0.309,0.553-0.045,0.77-0.18
		c1.953-1.195,2.391,0.301,3.023,1.619c4.5,9.352,10.35,17.766,17.547,25.25c5.229,5.438,11.045,10.158,17.363,14.258
		c0.854,0.553,1.184,0.889,0.418,1.744C141.018,267.344,140.82,267.926,140.521,268.473z"/>
	<path fill="#F1F1F0" d="M149.134,253.184c-14.137-8.201-25.106-22.215-31.014-35.57c0.879,0.191,1.718,0.39,2.562,0.56
		c0.824,0.164,1.334,0.608,1.729,1.388c4.092,8.071,9.326,15.313,15.877,21.576c3.306,3.159,6.871,6.02,10.711,8.481
		c1.406,0.899,1.521,1.563,0.584,2.729C149.402,252.572,149.302,252.863,149.134,253.184z"/>
	<path fill="#ECECED" d="M318.048,225.846c-0.295,2.543-1.326,4.701-2.146,6.914c-0.606,1.641-1.391,3.213-1.989,4.855
		c-0.195,0.535-0.4,0.721-0.923,0.635c-3.324-0.551-6.674-0.057-10.008-0.184c-0.281-0.014-0.588,0.065-0.865-0.217
		c0.647-1.429,1.313-2.869,1.957-4.32c0.248-0.562,0.762-0.691,1.248-0.922C309.605,230.586,313.824,228.436,318.048,225.846z"/>
</g>
</svg>
