<?xml version="1.0" encoding="utf-8"?>
<!-- Generator: Adobe Illustrator 16.0.0, SVG Export Plug-In . SVG Version: 6.00 Build 0)  -->
<!DOCTYPE svg PUBLIC "-//W3C//DTD SVG 1.1//EN" "http://www.w3.org/Graphics/SVG/1.1/DTD/svg11.dtd">

<svg id="logo-hero" xmlns="http://www.w3.org/2000/svg" width="406" height="383" viewBox="0 0 406 383">

	<style>

		.rings {
		  stroke: #F8F7F7;
		  stroke-width: 2;
		  stroke-dasharray: 810;
		  stroke-dashoffset: 810;
			-webkit-animation-delay: 2s; /* Safari 4.0 - 8.0 */
		  animation-delay: 2s;
		  animation: offset-1 3s cubic-bezier(.17,.67,.36,1.04) 2s forwards, fill-it-1 .8s 3.5s forwards;
		}

		.title {
		  stroke: #EF3649;
		  stroke-width: 2;
		  stroke-dasharray: 2500;
		  stroke-dashoffset: 2500;
			-webkit-animation-delay: 2s; /* Safari 4.0 - 8.0 */
		  animation-delay: 2s;
		  animation: offset-2 3s cubic-bezier(.17,.67,.36,1.04) 2s forwards, fill-it-2 .8s 3.5s forwards;
		}

		@keyframes offset-1 {
		  100% {
		    stroke-dashoffset: 0;
		  }
		}

		@keyframes fill-it-1 {
		  100% {
		    fill: #F8F8F7;
		    stroke: transparent;
		  }
		}

		@keyframes offset-2 {
		  100% {
		    stroke-dashoffset: 0;
		  }
		}

		@keyframes fill-it-2 {
		  100% {
		    fill: #EF3649;
		    stroke: transparent;
		  }
		}

	</style>

  <g>
    <path class="title" fill="transparent" d="M84.896 230.287c-3.792.662-7.082.014-9.982-2.268-3.945-3.104-6.295-7.347-8.119-11.873-1.512-3.752-2.898-7.57-4.055-11.445-1.488-4.98-2.817-10.014-3.767-15.14-.425-2.303-1.099-4.558-1.174-6.918-.011-.338-.168-.748-.575-.664-.294.061-.584.332-.587.752-.007.885-.12 1.763-.203 2.643-.471 4.973-.81 9.957-1.302 14.931-.822 8.282-1.61 16.604-3.944 24.616-1.332 4.574-2.836 9.261-5.555 13.188-2.714 3.92-6.227 7.34-11.406 7.871-5.149.524-11.312-2.188-13.204-7.377-.224-.613-.189-1.199-.436-1.842 1.104.043 1.525.782 2.075 1.307 1.491 1.418 2.742 3.16 4.74 3.91 1.907.717 3.791.658 5.615-.49 4.087-2.57 6.047-6.605 7.513-10.924 1.67-4.92 2.495-10.037 3.085-15.191.864-7.547 1.815-15.086 2.591-22.643.662-6.435 1.488-12.84 2.371-19.247.281-2.028.691-4.039.916-6.073.088-.805-.037-1.256-1.017-1.02-5.527 1.325-10.434 3.888-14.838 7.438-3.86 3.112-7.107 6.752-9.4 11.183-1.764 3.408-2.808 6.999-2.217 10.861.428 2.803 1.965 4.977 4.32 6.564.406.271.845.521 1.179.871.429.442.698 1.022.202 1.578-.443.493-.97.571-1.55.1-5.507-4.518-11.141-8.93-13.252-16.216-1.041-3.592-.239-6.98 1.199-10.288 2.736-6.293 7.649-10.445 13.473-13.709 6.514-3.651 13.446-6.279 20.593-8.358 1.39-.405 2.904-.367 4.204-1.13.421-.246.938-.414 1.242-.766 1.898-2.199 4.324-2.146 6.77-1.471 1.471.407 2.957.598 4.443.837.712.116 1.459.333 1.747.938.317.668-.392 1.136-.843 1.543-1.168 1.056-1.405 2.445-1.418 3.887-.06 6.999-.246 14.019.367 20.983.571 6.52 1.289 13.04 2.758 19.459.938 4.1 1.807 8.201 3.428 12.094.693 1.664 1.551 3.258 2.304 4.896.211.459.521.821.989.649.475-.172.212-.679.148-1.028-.66-3.67-.875-7.39-1.221-11.097-.31-3.334-.236-6.681-.391-10.017-.188-4.01.324-8.05.361-12.08.029-3.205.523-6.36.764-9.541.398-5.278 1.359-10.485 2.455-15.664.717-3.391 1.518-6.749 3.135-9.852 1.563-2.998 3.611-3.984 6.988-3.555 2.176.277 4.396.229 6.508.945.136.047.322-.018.436.05.694.42 1.83.511 1.934 1.397.113.972-1.006 1.121-1.693 1.32-2.07.6-2.729 2.364-3.52 4.018-2.819 5.895-4.739 12.104-6.121 18.462-1.088 5.011-1.786 10.099-2.572 15.17-.593 3.823-1.191 7.666-1.521 11.496-.574 6.691-1.385 13.408-.271 20.162.381 2.316.609 4.646 1.438 6.854.614 1.636 1.489 3.103 3.078 4.019.269.159.437.491.785.895zm315.928-113.969c-.588-.193-1.12-.019-1.575.498-1.904 2.148-4.379 3.453-6.979 4.521-7.155 2.935-14.672 4.669-22.16 6.458-4.312 1.029-8.678 1.823-13.025 2.682-.959.189-2.449.861-2.791 0-.365-.916.83-1.94 1.726-2.656.075-.062.161-.114.248-.159.528-.274 1.271-.585 1.224-1.153-.054-.665-.907-.824-1.479-1.016-2.985-.997-6.088-1.051-9.186-.891-2.744.139-4.757 1.36-5.559 4.178-.278.982-.687 1.93-1.062 2.883-.568 1.443-1.234 2.755-3.084 2.893-1.013.074-2.019.311-3.017.523-3.674.785-7.381 1.406-11.063 2.148-3.729.75-7.484 1.387-11.217 2.146-3.965.806-7.938 1.587-11.907 2.362-3.104.606-6.234 1.07-9.303 1.816-2.771.676-5.703.92-8.055 2.889-1.793 1.502-3.007 3.36-3.869 5.479-.144.354-.293.893.188 1.209.274.182.446-.1.61-.257 2.996-2.874 6.9-3.521 10.728-4.312 2.763-.57 5.55-1.018 8.328-1.508 2.84-.5 5.668-1.193 8.529-1.42 3.281-.26 6.479-1.005 9.745-1.355 3.645-.391 7.268-1.039 10.914-1.465 2.678-.311 5.348-.705 7.988-1.218 1.187-.229 1.282.044 1.077 1.095-.777 3.98-1.649 7.953-2.18 11.971-.814 6.191-1.503 12.404-1.242 18.679.043 1.018-.004 2.036-.336 3.061-.808 2.469-2.396 4.483-3.672 6.68-2.785 4.783-6.584 8.586-11.477 11.144-2.999 1.567-5.419.481-6.41-2.364-1.679-4.809-.938-9.667-.151-14.51.158-.981.754-.662 1.285-.332 1.048.653 2.152 1.043 3.411 1.135 4.488.334 9.238-3.207 10.75-7.7 1.271-3.78 1.63-7.67.932-11.568-.434-2.415-1.459-4.671-3.484-6.291-5.717-4.568-12.104-2.529-16.441 2.416-2.441 2.783-3.753 6.221-4.727 9.721-1.724 6.206-2.896 12.508-2.323 19.006.101 1.125-.125 2.188-.688 3.111-2.103 3.446-4.295 6.854-7.431 9.461-1.948 1.621-3.907 3.319-6.375 4.157-2.678.91-4.69-.051-5.61-2.688-.662-1.904-1.032-3.881-1.112-5.915-.117-2.883.657-5.665.911-8.506.101-1.133.777-.801 1.479-.439 3.602 1.855 7.932 1.707 10.768-1.854 4.793-6.02 5.767-12.677 2.756-19.706-2.258-5.274-7.602-6.449-12.379-4.75-5.609 1.994-8.33 6.614-10.203 11.842-1.436 4.005-2.369 8.179-2.69 12.404-.218 2.814-.648 5.656-.181 8.536.289 1.754.23 3.538-.908 5.206-1.266 1.854-2.174 3.948-3.315 5.895-1.323 2.248-2.731 4.438-4.729 6.188-2.441 2.143-4.592 1.545-5.486-1.543-.236-.816-.307-1.631-.322-2.467-.107-4.793 1.053-9.408 2.002-14.046.664-3.247 1.424-6.479 2.266-9.684.781-2.977 1.654-5.928 3.207-8.635.685-1.189 1.875-1.889 2.582-3.024.435-.693.789-1.472-.473-1.541-1.717-.096-3.438-.178-5.16.133-3.645.66-7.203 1.74-10.896 2.136-1.063.114-1.376-.259-.998-1.269.729-1.943.257-2.681-1.827-2.808-2.51-.153-5.017-.123-7.438.613-1.733.526-3.431 1.205-4.748 2.522-1.761 1.76-1.354 3.703.938 4.651 1.547.64 3.228.701 4.838 1.046.927.197 1.188.492.953 1.352-.459 1.693-.761 3.426-1.144 5.136-1.014 4.521-2.315 8.958-3.776 13.339-1.953 5.861-4.531 11.453-8.046 16.57-1.332 1.94-2.614 3.926-4.827 5.041-1.459.733-2.007.62-2.235-.961-.229-1.546-.673-3.058-.642-4.654.077-3.933.506-7.813 1.017-11.711.237-1.834.454-3.685.721-5.519.427-2.943.889-5.885 1.438-8.808.442-2.343.966-4.672 1.461-7.003 1.048-4.918 2.41-9.737 3.99-14.502.162-.491.351-.967.976-.928 2.034.125 4.004-.521 6.002-.584 4.823-.149 9.551-1.106 14.313-1.682 5.06-.609 10.12-1.252 15.174-1.934 1.795-.241 3.533-.694 4.802-2.205 3.164-3.766 5.336-8.08 7.06-12.641.194-.517.108-1.174.032-1.75-.064-.5-.412-.926-.916-1.072-.575-.166-.939.269-1.188.679-.439.739-1.054 1.253-1.742 1.747-5.295 3.796-11.527 5.23-17.631 6.938-4.972 1.391-10.011 2.541-15.033 3.737-2.521.601-5.068 1.079-7.611 1.573-.463.09-1.342.291-.848-.699.719-1.432 1.301-2.994 2.897-3.783.653-.322 1.341-.635 1.813-1.258-.713-.693-1.539-1.072-2.517-1.383-2.257-.717-4.58-.495-6.86-.766-2.748-.326-4.914.539-6.175 3.344-.847 1.882-1.487 3.809-2.129 5.75-.235.713-.302 1.615-1.263 1.799-2.153.412-4.315.791-6.479 1.164-.615.105-.982-.094-1.148-.797-.775-3.33-2.797-5.657-5.891-7.077-4.945-2.271-9.925-1.683-14.875-.081-4.196 1.356-7.963 3.521-11.412 6.289-6.264 5.025-10.727 11.025-10.891 19.444-.053 2.738.439 5.328 1.763 7.791 2.543 4.73 6.627 7.803 11.035 10.54 4.123 2.564 8.317 5.013 12.413 7.617 2.539 1.615 4.183 3.752 3.709 7.093-.332 2.353-1.476 4.325-2.334 6.448-2.553 6.299-5.501 12.377-9.757 17.729-1.341 1.688-2.564 3.513-4.493 4.646-1.818 1.072-3.178.438-3.655-1.565-.414-1.735-.033-3.412.036-5.123.186-4.604 1.398-8.959 3.035-13.205.863-2.235 2.045-4.342 3.624-6.188 1.937-2.27 4.434-3.088 7.34-2.918.445.023.998.195 1.188-.522.157-.597 0-1.078-.409-1.453-.316-.293-.714-.521-1.109-.696-2.406-1.09-4.73-2.396-7.269-3.148-2.504-.742-5.063-1.111-7.135 1.082-1.457 1.541-2.695 3.275-3.641 5.17-3.37 6.762-4.697 13.898-3.457 21.391.486 2.943 1.406 5.801 3.168 8.303 1.6 2.271 4.107 3.25 6.783 2.711 2.541-.516 4.781-1.666 6.938-3.03 6.254-3.964 11.38-9.104 15.27-15.354 3.143-5.05 5.434-10.42 5.373-16.644-.055-5.619-2.517-9.615-7.013-12.608-3.106-2.071-6.471-3.729-9.48-5.958-4.063-3.008-8.103-6.035-11.174-10.129-4.082-5.439-3.416-12.482 1.361-16.793 5.035-4.543 11.082-6.657 17.902-6.486 2.505.063 4.168 2.334 4.084 4.973-.012.377-.195.607-.631.666-1.26.17-2.51.514-3.771.561-2.223.08-4.299.548-5.972 2.052-1.852 1.664-3.918 3.168-4.914 5.588-.219.529-.624 1.213-.061 1.622.457.328 1-.228 1.394-.538 1.68-1.326 3.5-2.313 5.63-2.697 1.875-.338 3.741-.723 5.61-1.094.436-.086.906-.681 1.289-.095.277.423-.006.915-.244 1.372-1.609 3.075-3.691 5.807-6.096 8.283-2.271 2.34-3.102 2.356-5.888.49-.432-.289-.984-.729-1.466-.312-.368.318-.196.92-.042 1.396.594 1.848 1.744 3.235 3.332 4.356 2.559 1.81 4.851 4.01 7.834 5.178.479.188.885.363 1.368 0 3.248-2.438 6.174-5.188 8.313-8.674 2.466-4.021 4.111-8.319 4.216-13.106.013-.498-.007-1.122.676-1.094 1.312.056 2.513-.414 3.767-.623 1.061-.176 1.391.387 1.104 1.258-.289.89-.39 1.809-.617 2.693-1.672 6.515-2.393 13.18-3.141 19.832-.684 6.067-1.055 12.167-.914 18.285.08 3.5.48 6.945 1.793 10.232 1.229 3.086 3.938 5.619 8.243 4.598 3.366-.801 5.409-3.113 7.188-5.695 4.06-5.889 6.672-12.52 9.433-19.063 2.584-6.123 4.88-12.367 6.692-18.755.647-2.278 1.418-3.533 3.938-3.058.387.072.838-.199 1.26-.309.275-.072.563-.24.832.01.344.314.104.629-.008.943-.66 1.824-1.13 3.691-1.564 5.59-1.139 4.951-1.705 9.947-1.728 15.009-.021 4.217-.399 8.478 1.2 12.547 1.156 2.941 3.018 4.984 6.344 5.414 2.877.371 5.148-.813 7.172-2.631 3.23-2.91 5.283-6.684 7.412-10.391.188-.33.262-.826.734-.816.514.008.468.512.606.867.306.779.638 1.551 1.021 2.291 1.279 2.459 2.882 4.613 5.795 5.234 3.31.705 6.424-.023 9.39-1.514 5.563-2.797 10.129-6.719 13.399-12.066.146-.236.189-.583.573-.595.485-.018.454.385.596.689.531 1.16 1.04 2.342 1.682 3.441 1.309 2.256 3.106 3.793 5.824 4.252 2.731.461 5.265-.018 7.729-1.086 6.486-2.809 11.462-7.314 14.972-13.455.235-.418.059-1.309.846-1.174.814.142.49.977.537 1.496.383 4.256 1.065 8.456 2.496 12.495.428 1.205.127 1.731-1.06 2.186-5.524 2.117-11.03 4.287-16.519 6.504-5.977 2.414-12.009 4.684-18.099 6.777-6.136 2.106-12.243 4.313-18.499 6.051-3.279.912-6.57 1.805-9.89 2.564-2.903.666-5.856 1.084-8.819 1.436-4.351.518-8.629.801-12.336-2.217-.218-.178-.498-.312-.771-.377-1.679-.424-2.216.109-1.752 1.768.476 1.703 1.762 2.918 2.713 4.33 2.136 3.172 4.215 6.389 7.049 9.025 2.146 1.996 4.507 3.276 7.563 2.701 2.301-.435 4.609-.777 6.865-1.451 6.617-1.98 12.674-5.248 18.856-8.203 8.584-4.104 16.991-8.563 25.374-13.064 7.037-3.777 14.098-7.518 21.039-11.469.572-.326.901-.215 1.354.293 1.651 1.859 2.964 4.023 5.257 5.309 3.073 1.719 6.841 1.256 9.117-1.438 2.973-3.515 4.697-7.483 4.386-12.22-.197-2.975-2.546-4.602-5.433-3.766-2.413.701-4.664 1.766-6.932 2.799-2.272 1.035-2.313 1.037-2.574-1.305-.016-.146-.073-.287-.104-.43-1.082-4.923-.909-9.932-.519-14.871.457-5.748 1.074-11.496 2.136-17.193.657-3.542 1.219-7.116 1.961-10.635.813-3.846 2.037-7.611 3.465-11.293.208-.535.514-.844 1.152-.945 2.504-.396 4.993-.889 7.493-1.322 4.188-.73 8.361-1.541 12.567-2.134 4.304-.606 8.572-1.399 12.856-2.104 1.833-.301 3.659-.76 5.502-.84 1.873-.08 3.346-.793 4.555-2.088 2.729-2.923 4.801-6.293 6.516-9.898.508-1.073.619-2.17.578-3.301-.009-.455.242-1.093-.383-1.3zm-88.678 56.11c1.454-3.766 2.209-7.8 4.342-11.304.853-1.399 1.771-2.726 3.427-3.282.885-.298 1.6-.16 1.31.955-1.099 4.204-2.173 8.421-4.56 12.148-.91 1.42-2.141 2.25-3.839 2.387-.711.092-.881-.387-.68-.904zm-30.806 5.941c1.512-4.329 2.408-8.908 5.18-12.729.662-.912 1.508-1.584 2.541-1.932.705-.236 1.658-.303 1.334.956-1.111 4.32-2.271 8.628-4.752 12.436-.883 1.354-2.186 1.898-3.969 2.178-.379.01-.483-.488-.334-.909zm63.837 23.026c2.094-1.262 4.205-2.502 6.603-3.086 1.494-.363 2.352.305 2.333 2.064-.325 1.83-1.002 3.953-2.625 5.631-1.08 1.117-2.479 1.162-3.705.256-1.385-1.025-2.067-2.586-3.007-3.951-.32-.463.051-.704.401-.914z"/>
    <path class="title" fill="transparent" d="M260.594 107.37c-.082-.826-.377-1.498-1.156-1.699-.688-.179-1.188.337-1.521.929-.237.426-.442.873-.683 1.301-.821 1.49-1.455 3.058-2.84 4.236-4.441 3.783-9.731 5.903-15.158 7.624-5.948 1.888-12.008 3.45-18.053 5.013-4.387 1.133-8.826 2.053-13.248 3.035-3.563.791-7.125 1.607-10.702 2.285-3.353.635-6.67 1.432-10.039 1.993-3.459.577-6.873 1.431-10.303 2.171-5.811 1.253-11.621 2.497-17.421 3.792-.688.153-1.212.201-1.745-.327-1.13-1.121-2.533-1.344-4.079-1.291-1.223.043-2.315.483-3.399.889-2.64.992-5.116 2.248-6.568 4.892-.366.666-.346 1.155.059 1.754.799 1.183 2.03 1.421 3.299 1.603 3.09.445 2.929.518 3.523 2.842.82 3.197 1.255 6.457 1.221 9.732-.048 4.516-.307 9.019-.879 13.524-.427 3.352-.908 6.688-1.5 10.008-.795 4.467-1.994 8.844-3.218 13.208-.62 2.215-1.272 4.434-2.892 6.193-1.002 1.094-1.467 1.053-1.809-.408-.535-2.287-.945-4.615-.705-6.986.409-4.035.672-8.083 1.659-12.046.56-2.244 1.001-4.5 2.833-6.132.581-.519.549-.961-.191-1.146-3.1-.771-6.233-1.383-9.416-.608-1.096.267-2.07.835-2.096 2.278-.039 2.354-.33 4.711-.65 7.023-.719 5.174-1.327 10.395-3.026 15.375-.657 1.926-1.239 3.954-2.786 5.448-.683.66-1.453 1.306-2.451 1.011-1.047-.314-1.26-1.38-1.365-2.271-.451-3.84-.043-7.68.709-11.423.608-3.038 1.319-6.073 2.125-9.083 1.266-4.734 2.33-9.518 5.553-13.42.416-.504.277-.746-.208-.98-2.571-1.239-5.246-2.213-8.121-2.217-1.742-.002-3.356.246-4.076 3.008-.603 2.313-.991 4.667-1.458 7.006-1.076 5.383-2.003 10.768-2.279 16.256-.154 3.064-.791 5.888-2.608 8.548-2.96 4.33-6.132 8.375-11.162 10.305-3.052 1.172-5.367.383-6.37-2.871-1.459-4.729-.868-9.486-.134-14.254.192-1.248.521-1.292 1.559-.75 4.375 2.273 8.679 1.381 11.566-2.644 3.961-5.525 4.575-11.661 2.356-18-2.301-6.581-8.88-8.27-14.795-5.088-3.613 1.942-5.853 5.088-7.289 8.756-2.697 6.896-4.142 14.063-3.926 22.061-.104 2.993-.021 6.506 1.15 9.922.871 2.543 1.976 4.922 4.019 6.729 3.136 2.771 6.791 2.313 10.291 1.183 6.425-2.076 11.099-6.486 14.841-11.974.203-.299.246-.779.812-.676.506.092.489.504.651.855.722 1.574 1.588 3.068 2.95 4.186 2.816 2.305 5.474 2.914 8.454.443 2.827-2.344 4.451-5.551 5.701-8.947.141-.383.05-1.002.688-.939.522.052.656.603.739 1.004.345 1.681 1.177 3.119 2.156 4.474 1.245 1.72 3.088 2.571 5.097 2.375 1.885-.187 3.627-1.103 5.096-2.418 2.736-2.457 4.932-5.315 6.634-8.576 1.979-3.789 3.336-7.82 4.663-11.859.713-2.172 1.357-4.383 1.818-6.621.824-4.016 1.5-8.055 1.976-12.138.784-6.744.677-13.412-.873-20.031-.412-1.76-.447-1.742 1.444-1.916 3.764-.347 7.511-.859 11.261-1.297 6.821-.796 13.655-1.484 20.481-2.226 5.218-.565 10.448-.992 15.67-1.515 3.605-.361 7.209-.764 10.813-1.183 3.159-.368 6.313-.784 9.471-1.179 5.481-.682 10.884-1.741 16.213-3.217 4.266-1.18 7.26-3.603 8.943-7.768 1.264-3.128 2.483-6.283 3.346-9.521.651-2.474 1.619-4.954 1.358-7.625zM96.298 188.243c1.281-4.454 2.311-9.009 5.068-12.888.748-1.051 1.793-1.674 2.918-2.182.387-.175.92-.258.908.41-.488 1.967-.888 3.879-1.443 5.745-.752 2.522-1.454 5.065-2.979 7.299-.893 1.308-2.064 2.042-3.552 2.392-.667.157-1.15.024-.92-.776z"/>
  </g>

  <g>
  <!-- Rings below -->
  <path class="rings" fill="transparent" d="M211.152 261.217c.004-.834-.021-1.668.014-2.5.02-.477-.318-1.215.557-1.24.719-.021 1.607-.014 1.723.971.212 1.796.438 3.599.06 5.412-.198.951-.847 1.109-1.629 1.123-.985.015-.703-.727-.717-1.266-.021-.834-.008-1.668-.008-2.5z"/>
  <path class="rings" fill="transparent" d="M271.498 261.143c0-.832-.002-1.666 0-2.498 0-.51-.232-1.192.637-1.176.676.014 1.512.035 1.631.916.244 1.846.369 3.707.049 5.561-.162.937-.928 1.074-1.69 1.033-.972-.049-.604-.811-.617-1.338-.024-.832-.01-1.666-.01-2.498z"/>
  <path class="rings" fill="transparent" d="M287.273 267.137c0-2.76-.004-5.52.002-8.279.002-.6-.293-1.399.762-1.401.914-.002 1.754.049 1.852 1.342.256 3.349.418 6.69.328 10.043-.063 2.269-.271 4.524-.336 6.791-.041 1.354-.943 1.274-1.85 1.287-1.079.021-.771-.741-.768-1.353.01-2.811.004-5.619.004-8.43h.006z"/>
  <path class="rings" fill="transparent" d="M258.74 267.539c0 2.418.014 4.834-.01 7.252-.004.533-.06 1.09-.22 1.596-.165.521-.512.969-1.168.963-.588-.006-.854-.434-1.094-.869-.315-.578-.383-1.217-.381-1.862.016-4.933.021-9.865.062-14.796.004-.633.131-1.276.301-1.891.131-.471.399-.928 1.008-.93.576-.004.877.381 1.104.844.311.631.447 1.295.445 2-.014 2.564-.006 5.129-.006 7.693h-.041z"/>
  <path class="rings" fill="transparent" d="M319.144 276.035c-.335-4.58-.417-9.17-.139-13.746.217-3.551.293-7.08-.121-10.607-.272-2.346-1.118-4.361-3.592-5.242-1.716-.61-3.465-.998-5.292-1.069-5.42-.216-10.832.166-16.248.185-17.611.059-35.225-.162-52.832.161-1.854.033-3.387-.435-4.662-1.747-2.199-2.267-4.697-4.183-7.148-6.148-3.24-2.605-6.51-5.176-9.979-7.93 0 4.799.018 9.287-.008 13.774-.014 1.916-.119 1.942-1.979 2.017-4.486.174-8.949-.479-13.438-.313-4.384.161-7.266 2.668-7.313 6.967-.114 9.815-.149 19.638.021 29.451.063 3.534.784 6.229 6.126 7.213 2.055.377 4.121.22 6.188.22 32.607-.005 65.219-.013 97.826-.019 2.212 0 4.42 0 6.626-.283 2.619-.338 4.986-2.256 5.396-4.674.464-2.716.769-5.448.568-8.21zm-100.697 5.32c-1.254-.201-2.842.506-3.704-.271-.774-.694-.798-2.233-1.146-3.401-.687-2.304-1.365-4.605-2.05-6.908-.144.006-.28.012-.424.018 0 1.645-.002 3.285.002 4.928.002.689.031 1.383.021 2.068-.021 1.125.34 2.547-.209 3.295-.617.842-2.119.039-3.215.254-1.099.213-1.313-.287-1.306-1.293.043-5.564.021-11.137.021-16.705 0-3.006.047-6.014-.021-9.018-.023-1.059.311-1.361 1.334-1.289 2.301.166 4.629-.244 6.916.316 1.957.477 3.146 1.678 3.596 3.655.633 2.802.604 5.563-.262 8.313-.354 1.113-.857 2.144-1.842 2.767-.73.466-.68.906-.438 1.595 1.229 3.473 2.403 6.965 3.629 10.438.329.93.28 1.43-.902 1.238zm14.948-24.742c.146.662-.207.992-.916.979-1.43-.023-2.861.045-4.287-.031-.868-.051-1.289.146-1.272 1.094.022 1.824-.002 3.646-.049 5.474-.021.783.415.871 1.032.86 1.232-.022 2.47.011 3.699-.02.681-.021 1.033.223.982.934-.004.049-.004.098 0 .146.252 3.377.252 3.377-3.084 3.382-2.596 0-2.598 0-2.604 2.616-.004 1.281.049 2.565-.022 3.845-.045.799.211 1.057.993 1.022 1.479-.06 2.961-.007 4.438-.082.869-.045 1.088.313 1.115 1.116.123 3.378.145 3.371-3.17 3.375-2.318 0-4.639.005-6.955.035-.666.011-1.184-.004-1.107-.907.354-4.435.021-8.873.066-13.31 0-4.438.016-8.877-.02-13.313-.004-.605.16-.779.729-.777 3.207.014 6.412.004 9.619.002.099 0 .231-.035.289.014 1.125 1.033.264 2.371.524 3.546zm14.763 18.971c-.008 2.359-.662 4.516-2.863 5.811-3.715 2.187-8.285.127-9.088-4.086-.201-1.063-.268-2.147-.447-3.676.563-4.574-.064-9.592.02-14.611.021-1.069.269-2.153.537-3.196.441-1.707 1.787-2.483 3.341-3.019 4.579-1.57 8.016.615 8.456 5.404.021.246.025.492.025.738-.004 4.813.566 3.543-3.938 3.74-.709.027-.966-.316-.914-.998.067-.938.118-1.869.139-2.807.019-.918-.288-1.769-1.282-1.867-1.019-.105-1.25.795-1.369 1.592-.146.973-.369 1.967-.295 2.932.301 3.988.141 7.973.043 11.959-.021.779.104 1.57.229 2.346.133.813.414 1.625 1.449 1.512 1.002-.108 1.159-.953 1.188-1.771.03-.937.034-1.875-.023-2.81-.047-.729.119-1.098.951-1.051 4.378.249 3.857-1.14 3.841 3.858zm15.254-9.637c-.018.441-.004.887-.004 1.33-.096 3.147.133 6.305-.137 9.451-.326 3.846-2.947 5.864-6.78 5.242-3.679-.601-5.046-2.06-5.138-5.796-.131-5.269-.148-10.536-.209-15.808-.006-.54.028-1.084.073-1.625.447-5.229 4.714-7.661 9.539-5.465 1.91.869 2.584 2.457 2.695 4.394.162 2.762.051 5.519-.039 8.277zm15.29 15.393c-.097-.02-.196-.004-.295-.016-1.157-.152-2.634.549-3.405-.271-.723-.762-.752-2.176-1.08-3.303-.681-2.324-1.355-4.648-2.033-6.975-.563 1.676-.408 3.322-.422 4.965-.01 1.525-.021 3.057.043 4.582.035.871-.295 1.164-1.125 1.049-.438-.059-.885-.049-1.328-.051-2.258-.021-2.26-.018-2.26-2.355-.002-8.186.021-16.369-.027-24.555-.01-1.102.234-1.475 1.371-1.383 2.301.184 4.633-.252 6.918.332 1.826.467 3.033 1.57 3.475 3.43.634 2.684.693 5.357-.063 8.039-.386 1.363-.9 2.625-2.171 3.385-.659.396-.465.836-.274 1.381 1.223 3.479 2.401 6.971 3.632 10.441.34.981.332 1.576-.956 1.305zm16.136-14.297c-.082 3.045.293 6.242-.148 9.445-.481 3.502-2.178 5.078-5.696 5-1.918-.041-3.82-.424-5.752-.225-.601.063-.75-.285-.726-.824.42-8.771-.152-17.543.232-26.313.02-.437-.234-1.104.59-1.063 2.65.127 5.326-.307 7.959.299 1.932.441 3.021 1.664 3.355 3.638.563 3.289.141 6.592.186 10.043zm14.902 11.232c-.729 2.66-3.015 3.924-6.566 3.77-2.776-.119-4.506-1.598-5.078-4.254-.379-1.758-.234-3.533-.297-5.303-.021-.576.242-.775.801-.764 1.033.02 2.07.018 3.104-.025.797-.031.889.457.862 1.051-.035.838-.147 1.676-.121 2.51.03.955.175 2.027 1.396 2.076 1.127.045 1.369-.939 1.521-1.846.468-2.816-.163-5.186-2.787-6.723-4.588-2.688-5.561-6.845-4.733-11.713.524-3.111 2.86-4.716 6.681-4.621 3.139.073 4.958 1.688 5.348 4.778.104.83.104 1.672.153 2.509-.021 2.948-.021 2.948-2.936 2.973-1.905.014-1.896.014-1.816-1.906.029-.787.058-1.58-.007-2.363-.062-.75-.483-1.313-1.269-1.42-.847-.111-1.326.473-1.466 1.174-.371 1.883-.438 3.771 1.093 5.242.92.887 1.901 1.727 2.941 2.459 2.13 1.512 3.414 3.42 3.661 6.104.199 2.146.076 4.24-.485 6.292z"/>
  <path class="rings" fill="transparent" d="M192.441 52.333c6.888-.098 12.629.182 18.332.969 11.737 1.62 23.076 4.703 33.959 9.427 10.61 4.604 20.461 10.499 29.55 17.62 7.224 5.659 13.78 12.021 19.683 19.09 7.521 9.016 13.604 18.92 18.839 29.385 1.182 2.358 1.173 2.301-1.528 2.93-2.475.576-5.021.669-7.481 1.33-.918.248-1.229-.686-1.479-1.323-1.662-4.222-4.091-8.022-6.513-11.813-6.35-9.937-13.731-19.002-22.608-26.824-12.402-10.932-26.473-18.945-42.105-24.256-6.414-2.18-12.996-3.697-19.66-4.854-8.326-1.444-16.738-1.623-25.136-1.179-5.705.303-11.379 1.144-17.022 2.193-17.89 3.33-33.982 10.619-48.638 21.32-6.901 5.042-13.252 10.684-18.975 17-7.613 8.404-13.906 17.732-18.738 28.02-.313.666-.713 1.297-.961 1.983-.728 2.001-1.631 3.536-3.987 4.29-2.964.949-4.695 3.583-6.228 6.209-.195.335-.377.678-.597.997-.463.675-.864 1.159-1.873.584-.823-.469-2.401.011-2.694-.896-.248-.764.594-1.869.918-2.836 4.244-12.637 10.2-24.422 18.006-35.215 5.838-8.074 12.613-15.314 20.181-21.847 10.03-8.659 20.991-15.81 33.063-21.253 8.277-3.734 16.918-6.426 25.793-8.252 6.26-1.288 12.596-2.174 19.008-2.527 3.335-.183 6.679-.114 8.891-.272zM70.594 236.115c4.014 2.313 8.28 3.299 12.727 3.613.91.063.998.881 1.293 1.428 2.85 5.264 5.992 10.344 9.521 15.18 6.405 8.781 13.746 16.652 22.302 23.416 10.935 8.645 22.987 15.158 36.088 19.852 6.521 2.336 13.188 4.058 19.994 5.213 5.426.925 10.924 1.226 16.426 1.422 5.13.183 10.242-.104 15.342-.512 5.297-.426 10.541-1.274 15.729-2.481 6.174-1.437 12.207-3.271 17.981-5.901 2.446-1.113 5.065-1.23 7.661-1.011 5.175.438 10.351.147 15.521.254.488.011.979 0 1.547 0-53.669 36.943-153.962 26.799-192.132-60.473z"/>
  <path class="rings" fill="transparent" d="M88.605 136.044c2.508-5.387 5.264-10.502 8.504-15.348 3.092-4.625 6.504-9.002 10.268-13.098 7.457-8.117 15.925-15.025 25.283-20.834 6.379-3.96 13.07-7.281 20.131-9.9 5.68-2.104 11.473-3.769 17.396-4.883 10.172-1.912 20.438-2.611 30.797-1.896 13.621.941 26.649 4.168 39.059 9.845 9.096 4.163 17.469 9.504 25.227 15.824 6.392 5.206 12.113 11.071 17.379 17.399.896 1.072.728 1.519-1.006 2.828-.951.719-1.178-.207-1.5-.691-1.949-2.93-4.441-5.396-6.865-7.903-4.204-4.353-8.688-8.411-13.549-12.035-6.703-4.995-13.867-9.198-21.477-12.655-8.283-3.764-16.928-6.406-25.855-8.031-3.494-.635-7.045-1.053-10.612-1.336-5.565-.44-11.128-.471-16.673-.149-6.979.403-13.879 1.538-20.668 3.261-13.234 3.359-25.33 9.151-36.461 17.024-6.646 4.7-12.795 9.985-18.248 16.011-7.203 7.963-13.277 16.736-17.857 26.488-.252.533-.418.777-1.068.533-.681-.251-1.431-.302-2.205-.454z"/>
  <path class="rings" fill="transparent" d="M96.624 137.747c2.812-5.555 5.844-10.805 9.418-15.737 4.554-6.278 9.75-11.95 15.519-17.134 6.36-5.715 13.311-10.563 20.817-14.62 6.07-3.281 12.431-5.888 19.019-7.94 6.584-2.053 13.324-3.424 20.17-4.094 6.516-.639 13.058-.602 19.609-.131 9.416.675 18.486 2.785 27.334 5.962 2.977 1.067 5.895 2.292 8.732 3.688.406.201 1.082.487.463.992-.6.487-.068 2.076-1.646 1.588-3.418-1.059-6.496-2.92-9.906-4.021-6.176-1.991-12.444-3.454-18.873-4.37-5.354-.764-10.74-1.15-16.121-1.044-5.619.11-11.217.651-16.795 1.612-15.707 2.703-29.789 9.078-42.699 18.242-13.732 9.748-24.277 22.24-31.809 37.285-.334.668-.523.924-1.258.434-.547-.362-1.262-.466-1.974-.712z"/>
  <path class="rings" fill="transparent" d="M92.602 234.816c3.711 7.455 8.153 14.08 13.242 20.246 4.258 5.16 8.969 9.896 14.072 14.258 6.516 5.563 13.488 10.422 21.059 14.416 8.271 4.363 16.984 7.531 26.105 9.6 6.156 1.396 12.371 2.373 18.684 2.674 1.743.084.76 1.377.967 2.105.234.816-.308.908-1.043.867-7.972-.449-15.809-1.668-23.539-3.703-8.483-2.232-16.561-5.457-24.27-9.609-6.881-3.707-13.26-8.148-19.266-13.16-9.299-7.758-16.873-16.98-23.393-27.115-1.431-2.223-2.604-4.604-3.97-6.869-.549-.907-.535-1.561.343-2.194.44-.322.741-.783 1.009-1.516z"/>
  <path class="rings" fill="transparent" d="M104.426 146.665c-.341-1.403-.691-2.83-1.031-4.258-.111-.472.16-.828.356-1.229 3.694-7.465 8.237-14.387 13.631-20.714 4.574-5.366 9.675-10.218 15.291-14.509 6.497-4.965 13.456-9.139 20.992-12.325 6.974-2.949 14.199-5.028 21.662-6.325 7.438-1.292 14.929-1.593 22.455-1.498 1.062.014 1.337.482 1.151 1.35-.166.775.324 2.039-1.295 1.887-5.219-.486-10.43-.109-15.615.386-5.627.537-11.164 1.699-16.586 3.304-12.307 3.641-23.526 9.418-33.435 17.582-11.896 9.801-21.034 21.735-27.11 35.949-.076.18-.097.383-.466.4z"/>
  <path class="rings" fill="transparent" d="M115.617 158.229c1.5-4.877 3.471-9.377 5.974-13.627 7.333-12.454 16.878-22.799 29.388-30.185 6.916-4.084 14.336-6.986 22.185-8.846 3.849-.912 7.729-1.553 11.623-2.182.569-.092 1.59-.542 1.463.689-.09.881.828 2.334-1.103 2.461-5.276.345-10.42 1.471-15.451 3.016-8.813 2.705-16.86 6.908-24.288 12.413-9.664 7.161-17.08 16.146-22.57 26.778-1.16 2.246-2.157 4.582-3.116 6.922-.388.949-.818 1.636-1.91 1.676-.805.032-1.41.56-2.195.885z"/>
  <path class="rings" fill="transparent" d="M109.643 157.78c-.895-.27-1.643-.469-2.369-.726-.39-.138-.225-.396-.112-.707 2.842-7.946 6.521-15.464 11.215-22.498 7.763-11.632 17.808-20.767 30.007-27.521 5.305-2.937 10.856-5.373 16.659-7.199.595-.188 1.229-.508 1.269.427.03.759 1.213 1.72-.375 2.312-2.738 1.021-5.478 2.057-8.146 3.244-8.698 3.867-16.672 8.854-23.778 15.246-11.117 9.998-18.652 22.279-23.604 36.272-.154.426-.145 1.156-.766 1.15zm43.052 125.636c-13.289-5.391-25.119-12.861-35.275-22.941-10.168-10.094-17.73-21.918-23.443-35.111.906.021 1.799.386 2.741-.014.583-.246.642.566.823.959 2.24 4.857 4.758 9.562 7.646 14.064 5.063 7.9 11.022 15.014 18.037 21.283 8.715 7.789 18.504 13.836 29.162 18.523 1.147.504 1.61.883.793 2.01-.218.307-.29.717-.484 1.227zm-40.181-64.367c.596.021.657.555.821.916 2.024 4.477 4.408 8.75 7.095 12.861 4.332 6.625 9.555 12.465 15.541 17.623 8.305 7.15 17.754 12.32 28.045 15.988.953.34.881.69.721 1.565-.316 1.709-1.018 1.61-2.396 1.11-9.041-3.274-17.504-7.647-25.072-13.565-9.266-7.245-16.811-16.053-22.6-26.313-1.324-2.352-2.453-4.813-3.809-7.143-.643-1.102-.518-1.725.586-2.27.388-.188.714-.508 1.068-.772z"/>
  <path class="rings" fill="transparent" d="M140.521 268.473c-17.236-10.875-30.197-25.422-38.252-44.24.188-.309.553-.045.77-.18 1.953-1.195 2.391.301 3.023 1.619 4.5 9.352 10.35 17.766 17.547 25.25 5.229 5.438 11.045 10.158 17.363 14.258.854.553 1.184.889.418 1.744-.372.42-.57 1.002-.869 1.549z"/>
  <path class="rings" fill="transparent" d="M149.134 253.184c-14.137-8.201-25.106-22.215-31.014-35.57.879.191 1.718.39 2.562.56.824.164 1.334.608 1.729 1.388 4.092 8.071 9.326 15.313 15.877 21.576 3.306 3.159 6.871 6.02 10.711 8.481 1.406.899 1.521 1.563.584 2.729-.181.224-.281.515-.449.836z"/>
  <path class="rings" fill="transparent" d="M318.048 225.846c-.295 2.543-1.326 4.701-2.146 6.914-.606 1.641-1.391 3.213-1.989 4.855-.195.535-.4.721-.923.635-3.324-.551-6.674-.057-10.008-.184-.281-.014-.588.065-.865-.217.647-1.429 1.313-2.869 1.957-4.32.248-.562.762-.691 1.248-.922 4.283-2.021 8.502-4.171 12.726-6.761z"/>
  </g>
</svg>
